<?xml version="1.0" encoding="utf-8"?>
<!-- Generator: Adobe Illustrator 19.1.0, SVG Export Plug-In . SVG Version: 6.00 Build 0)  -->
<svg version="1.1" xmlns="http://www.w3.org/2000/svg" xmlns:xlink="http://www.w3.org/1999/xlink" x="0px" y="0px"
	 viewBox="0 0 593.6 198.5" style="enable-background:new 0 0 593.6 198.5;" xml:space="preserve">
<style type="text/css">
	.st0{display:none;}
	.st1{display:inline;fill:url(#SVGID_1_);}
	.st2{fill:#15EEA0;}
	.st3{opacity:0.2;fill:url(#SVGID_2_);}
	.st4{fill:#101010;}
	.st5{display:inline;}
</style>
<g id="Ebene_1">
</g>
<g id="Ebene_2">
</g>
<g id="Ebene_8" class="st0">
	<linearGradient id="SVGID_1_" gradientUnits="userSpaceOnUse" x1="87.9175" y1="218.0833" x2="87.9175" y2="63.0833">
		<stop  offset="0" style="stop-color:#000000;stop-opacity:0.2"/>
		<stop  offset="0.4417" style="stop-color:#000000"/>
	</linearGradient>
	<polyline class="st1" points="43.3,96.8 64.3,218.1 117.6,208.6 132.5,96.8 88.3,63.1 43.3,96.8 	"/>
</g>
<g id="Ebene_9">
</g>
<g id="Ebene_3">
</g>
<g id="Ebene_6">
</g>
<g id="Ebene_7">
	<g>
		<g>
			<polygon class="st2" points="15.1,141.8 15.2,57.6 88,15.3 160.8,57.3 160.6,141.5 87.8,183.8 			"/>
			<linearGradient id="SVGID_2_" gradientUnits="userSpaceOnUse" x1="87.9175" y1="183.7544" x2="87.9175" y2="65.2932">
				<stop  offset="0" style="stop-color:#000000;stop-opacity:0.2"/>
				<stop  offset="1" style="stop-color:#000000;stop-opacity:0.5"/>
			</linearGradient>
			<polygon class="st3" points="43.3,99.1 54.7,164.6 87.8,183.8 124,162.8 132.5,99.1 88.3,65.3 			"/>
			<rect x="56.4" y="67.5" transform="matrix(0.7071 -0.7071 0.7071 0.7071 -44.2951 91.1809)" width="63.1" height="63.1"/>
			
				<rect x="71.9" y="61.1" transform="matrix(-0.7071 -0.7071 0.7071 -0.7071 95.5722 193.7714)" class="st4" width="32" height="32"/>
		</g>
		<g>
			<path class="st2" d="M183.4,77.9v54H176V67.3h8.9l21.3,29.4l21.3-29.4h8.9v64.6h-7.4v-54l-22,30h-1.7L183.4,77.9z"/>
			<path class="st2" d="M251,67.2h7.5v64.7H251V67.2z"/>
			<path class="st2" d="M281,131.9h-7.4V67.3h7.4l36,29.9V67.3h7.5v64.6H317v-25.5l-36-29.3V131.9z"/>
			<path class="st2" d="M339.2,67.2h7.5v64.7h-7.5V67.2z"/>
			<path class="st2" d="M373.5,109.1v20.7c0,1.2-1.2,2.1-2.7,2.1h-6.9c-1.6,0-2.7-0.9-2.7-2.1V69.4c0-1.2,1.1-2.1,2.7-2.1h16
				c14.4,0,25.1,6.1,25.1,20.8c0,13.7-9.3,21-24.8,21H373.5z M379.8,98.5c9.5,0,13.3-4.3,13.3-10.3c0-3.5-1.4-10.1-13.4-10.1h-6.3
				v20.4H379.8z"/>
			<path class="st2" d="M491.4,109.1v20.7c0,1.2-1.2,2.1-2.7,2.1h-6.9c-1.6,0-2.7-0.9-2.7-2.1V69.4c0-1.2,1.1-2.1,2.7-2.1h16
				c14.4,0,25.1,6.1,25.1,20.8c0,13.7-9.3,21-24.8,21H491.4z M497.8,98.5c9.5,0,13.3-4.3,13.3-10.3c0-3.5-1.4-10.1-13.4-10.1h-6.3
				v20.4H497.8z"/>
			<path class="st2" d="M570.8,67.3h7.9l-24,35.1v29.4h-7.3v-29.4l-22.3-35.1h8l18.3,28.5L570.8,67.3z"/>
			<path class="st2" d="M464.2,67.3h-6.7c-1.6,0-3.2,0.9-3.2,2.1v28.9h-29V69.4c0-1.2-0.8-2.1-2.3-2.1h-6.7c-1.5,0-2.9,0.9-2.9,2.1
				v60.1c0,1.2,1.5,1.8,2.9,1.8h6.7c1.6,0,2.3-0.6,2.3-1.8v-20.2h29v20.2c0,1.2,1.6,1.8,3.2,1.8h6.7c1.5,0,3.1-0.6,3.1-1.8V69.4
				C467.3,68.2,465.7,67.3,464.2,67.3z"/>
		</g>
	</g>
</g>
<g id="Abstandhalter" class="st0">
	<rect x="0" y="74.7" class="st5" width="15" height="21.8"/>
	<rect x="578.7" y="65.7" class="st5" width="15" height="21.8"/>
	<rect x="77.8" y="0.2" class="st5" width="21.8" height="15"/>
	<rect x="75.2" y="183.7" class="st5" width="21.8" height="15"/>
	<rect x="160.7" y="103.5" class="st5" width="15" height="21.8"/>
</g>
</svg>
